<?xml version="1.0" encoding="iso-8859-1"?>
<!-- Generator: Adobe Illustrator 19.0.0, SVG Export Plug-In . SVG Version: 6.00 Build 0)  -->
<svg version="1.1" id="Layer_1" xmlns="http://www.w3.org/2000/svg" xmlns:xlink="http://www.w3.org/1999/xlink" x="0px" y="0px"
	 viewBox="0 0 508 508" style="enable-background:new 0 0 508 508;" xml:space="preserve">
<circle style="fill:#4761A5;" cx="254" cy="254" r="254"/>
<path style="fill:#4761A5;" d="M17.3,346C54.1,440.8,146.2,508,254,508s199.9-67.2,236.7-162H17.3z"/>
<path style="fill:#E6E9EE;" d="M41.3,289.3v13.1c0,10.6,8.6,19.2,19.2,19.2h356.9c22.8,0,40.7-19.3,39.1-42l-6.9-96.9
	c-0.8-11.4-10.3-20.2-21.7-20.2H206.2c0,0-34.5-0.4-102,74.5l-23.3,4.4C57.9,245.8,41.3,265.9,41.3,289.3z"/>
<path style="fill:#324A5E;" d="M109.4,301H452c1.9-3.6,3.3-7.4,4.1-11.5H41.3v12.9c0,10.6,8.6,19.2,19.2,19.2h48.8V301H109.4z"/>
<path style="fill:#2B3B4E;" d="M153,320.6c0-19.8-16.1-35.9-35.9-35.9s-35.9,16.1-35.9,35.9c0,0.4,0,0.7,0.1,1h71.6
	C152.9,321.3,153,320.9,153,320.6z"/>
<circle style="fill:#324A5E;" cx="117.1" cy="319.7" r="25.8"/>
<circle style="fill:#ACB3BA;" cx="117.1" cy="319.7" r="16.7"/>
<path style="fill:#2B3B4E;" d="M416.3,320.6c0-19.8-16.1-35.9-35.9-35.9s-35.9,16.1-35.9,35.9c0,0.4,0,0.7,0.1,1h71.6
	C416.3,321.3,416.3,320.9,416.3,320.6z"/>
<circle style="fill:#324A5E;" cx="380.4" cy="319.7" r="25.8"/>
<circle style="fill:#ACB3BA;" cx="380.4" cy="319.7" r="16.7"/>
<path style="fill:#84DBFF;" d="M167.4,187.6h-11c-14.4,11-31.8,26.7-52.3,49.4l13,1.4L167.4,187.6z"/>
<path style="fill:#54C0EB;" d="M121.1,251c0,0,37.8-62.7,81.8-60.2h6.5c2.9,0,5.2,2.3,5.2,5.2v15.2c0,13.2-9.5,24.6-22.5,27
	L121.1,251z"/>
<path style="fill:#CED5E0;" d="M231.6,196.1l6.5,42.9c0.5,3.5,3.6,6.2,7.2,6.2h190.3c4.5,0,7.9-4.1,7.1-8.5l-7-40.1
	c-0.6-3.4-3.6-5.9-7-6l-189.8-2.9C234.4,187.7,230.9,191.7,231.6,196.1z"/>
<path style="fill:#FF7058;" d="M458.2,287.4h-11.5c-0.7,0-1.3-0.6-1.3-1.3v-39.5c0-0.7,0.6-1.3,1.3-1.3h11.5c0.7,0,1.3,0.6,1.3,1.3
	V286C459.5,286.8,458.9,287.4,458.2,287.4z"/>
<path style="fill:#FFFFFF;" d="M64,259.6c0,0-7,14.2-5.1,25.1h-9.8C49.1,284.7,49.6,260.3,64,259.6z"/>
<g>
</g>
<g>
</g>
<g>
</g>
<g>
</g>
<g>
</g>
<g>
</g>
<g>
</g>
<g>
</g>
<g>
</g>
<g>
</g>
<g>
</g>
<g>
</g>
<g>
</g>
<g>
</g>
<g>
</g>
</svg>
